<svg width="696" height="157" viewBox="0 0 696 157" fill="none" xmlns="http://www.w3.org/2000/svg">
<path d="M111.467 148.314C112.305 148.314 112.993 148.247 113.53 148.113C114.083 147.979 114.628 147.786 115.165 147.535L115.693 149.396C115.106 149.681 114.461 149.891 113.756 150.025C113.068 150.159 112.221 150.226 111.215 150.226C110.175 150.226 109.194 150.05 108.272 149.698C107.349 149.346 106.544 148.826 105.856 148.138C105.186 147.451 104.649 146.604 104.246 145.597C103.861 144.574 103.668 143.4 103.668 142.075C103.668 140.784 103.861 139.635 104.246 138.629C104.632 137.606 105.16 136.75 105.831 136.063C106.519 135.358 107.332 134.83 108.272 134.478C109.211 134.109 110.234 133.924 111.341 133.924C112.381 133.924 113.236 134.008 113.907 134.176C114.578 134.343 115.198 134.57 115.769 134.855L115.215 136.666C114.897 136.532 114.595 136.415 114.31 136.314C114.041 136.197 113.764 136.104 113.479 136.037C113.211 135.97 112.926 135.92 112.624 135.886C112.339 135.853 112.012 135.836 111.643 135.836C110.905 135.836 110.2 135.953 109.53 136.188C108.875 136.406 108.297 136.767 107.794 137.27C107.307 137.773 106.913 138.427 106.611 139.232C106.326 140.021 106.184 140.977 106.184 142.1C106.184 143.241 106.326 144.205 106.611 144.994C106.896 145.782 107.274 146.419 107.743 146.906C108.23 147.392 108.792 147.753 109.429 147.987C110.066 148.205 110.746 148.314 111.467 148.314Z" fill="#868686"/>
<path d="M129.143 143.962C129.143 144.952 128.992 145.841 128.69 146.629C128.388 147.4 127.968 148.054 127.432 148.591C126.912 149.128 126.3 149.539 125.595 149.824C124.891 150.092 124.128 150.226 123.306 150.226C122.484 150.226 121.721 150.101 121.017 149.849C120.329 149.581 119.725 149.195 119.205 148.692C118.702 148.172 118.299 147.543 117.998 146.805C117.712 146.05 117.57 145.186 117.57 144.214C117.57 143.224 117.721 142.344 118.023 141.572C118.325 140.801 118.736 140.155 119.255 139.635C119.792 139.098 120.413 138.696 121.117 138.427C121.822 138.142 122.585 138 123.407 138C124.228 138 124.983 138.125 125.671 138.377C126.375 138.629 126.979 139.006 127.482 139.509C128.002 140.012 128.405 140.641 128.69 141.396C128.992 142.134 129.143 142.989 129.143 143.962ZM126.828 144.088C126.828 143.3 126.727 142.629 126.526 142.075C126.325 141.522 126.056 141.069 125.721 140.717C125.402 140.365 125.033 140.113 124.614 139.962C124.195 139.794 123.767 139.71 123.331 139.71C122.895 139.71 122.467 139.777 122.048 139.912C121.629 140.046 121.26 140.281 120.941 140.616C120.622 140.952 120.362 141.404 120.161 141.975C119.977 142.528 119.884 143.233 119.884 144.088C119.884 144.876 119.985 145.555 120.186 146.126C120.388 146.679 120.648 147.132 120.966 147.484C121.302 147.836 121.679 148.096 122.098 148.264C122.518 148.432 122.945 148.516 123.381 148.516C123.817 148.516 124.245 148.449 124.664 148.314C125.084 148.163 125.453 147.92 125.771 147.585C126.09 147.233 126.342 146.78 126.526 146.226C126.727 145.656 126.828 144.943 126.828 144.088Z" fill="#868686"/>
<path d="M134.05 150H131.837V138.176H133.547L133.874 139.811C134.428 139.258 135.023 138.821 135.661 138.503C136.298 138.167 137.061 138 137.95 138C138.789 138 139.476 138.176 140.013 138.528C140.55 138.863 140.952 139.333 141.22 139.937C141.808 139.316 142.453 138.838 143.158 138.503C143.862 138.167 144.642 138 145.497 138C146.705 138 147.611 138.343 148.214 139.031C148.835 139.702 149.145 140.641 149.145 141.849V150H146.931V142.251C146.931 141.463 146.764 140.859 146.428 140.44C146.093 140.021 145.539 139.811 144.768 139.811C143.627 139.811 142.562 140.323 141.573 141.346C141.589 141.43 141.598 141.513 141.598 141.597C141.598 141.681 141.598 141.765 141.598 141.849V150H139.384V142.251C139.384 141.463 139.216 140.859 138.881 140.44C138.545 140.021 137.992 139.811 137.22 139.811C136.08 139.811 135.023 140.348 134.05 141.421V150Z" fill="#868686"/>
<path d="M157.478 150.226C156.941 150.226 156.421 150.151 155.918 150C155.432 149.849 155.013 149.648 154.66 149.396V155.786H152.472V138H154.308L154.635 139.534C155.088 139.115 155.6 138.754 156.17 138.453C156.74 138.151 157.411 138 158.182 138C159.759 138 161 138.503 161.906 139.509C162.811 140.515 163.264 141.958 163.264 143.836C163.264 144.943 163.097 145.899 162.761 146.704C162.443 147.509 162.006 148.172 161.453 148.692C160.916 149.212 160.296 149.597 159.591 149.849C158.904 150.101 158.199 150.226 157.478 150.226ZM157.704 139.811C157 139.811 156.388 139.987 155.868 140.339C155.348 140.675 154.945 141.019 154.66 141.371V147.685C155.046 147.971 155.457 148.18 155.893 148.314C156.329 148.449 156.765 148.516 157.201 148.516C157.654 148.516 158.107 148.44 158.56 148.289C159.013 148.122 159.415 147.853 159.767 147.484C160.12 147.115 160.405 146.637 160.623 146.05C160.841 145.463 160.95 144.742 160.95 143.887C160.95 142.629 160.681 141.639 160.145 140.918C159.625 140.18 158.811 139.811 157.704 139.811Z" fill="#868686"/>
<path d="M176.78 143.962C176.78 144.952 176.629 145.841 176.328 146.629C176.026 147.4 175.606 148.054 175.07 148.591C174.55 149.128 173.938 149.539 173.233 149.824C172.529 150.092 171.766 150.226 170.944 150.226C170.122 150.226 169.359 150.101 168.654 149.849C167.967 149.581 167.363 149.195 166.843 148.692C166.34 148.172 165.937 147.543 165.635 146.805C165.35 146.05 165.208 145.186 165.208 144.214C165.208 143.224 165.359 142.344 165.661 141.572C165.963 140.801 166.373 140.155 166.893 139.635C167.43 139.098 168.051 138.696 168.755 138.427C169.459 138.142 170.223 138 171.044 138C171.866 138 172.621 138.125 173.309 138.377C174.013 138.629 174.617 139.006 175.12 139.509C175.64 140.012 176.042 140.641 176.328 141.396C176.629 142.134 176.78 142.989 176.78 143.962ZM174.466 144.088C174.466 143.3 174.365 142.629 174.164 142.075C173.963 141.522 173.694 141.069 173.359 140.717C173.04 140.365 172.671 140.113 172.252 139.962C171.833 139.794 171.405 139.71 170.969 139.71C170.533 139.71 170.105 139.777 169.686 139.912C169.267 140.046 168.898 140.281 168.579 140.616C168.26 140.952 168 141.404 167.799 141.975C167.615 142.528 167.522 143.233 167.522 144.088C167.522 144.876 167.623 145.555 167.824 146.126C168.025 146.679 168.285 147.132 168.604 147.484C168.94 147.836 169.317 148.096 169.736 148.264C170.156 148.432 170.583 148.516 171.019 148.516C171.455 148.516 171.883 148.449 172.302 148.314C172.722 148.163 173.091 147.92 173.409 147.585C173.728 147.233 173.98 146.78 174.164 146.226C174.365 145.656 174.466 144.943 174.466 144.088Z" fill="#868686"/>
<path d="M186.116 140.39C185.563 140.121 185.06 139.937 184.607 139.836C184.154 139.736 183.701 139.685 183.248 139.685C182.443 139.685 181.848 139.836 181.462 140.138C181.076 140.423 180.883 140.809 180.883 141.295C180.883 141.648 181.018 141.958 181.286 142.226C181.554 142.478 182.116 142.729 182.971 142.981L183.726 143.207C184.85 143.543 185.697 143.979 186.267 144.516C186.854 145.035 187.148 145.748 187.148 146.654C187.148 147.727 186.745 148.591 185.94 149.245C185.152 149.899 184.045 150.226 182.619 150.226C181.864 150.226 181.135 150.159 180.43 150.025C179.743 149.891 179.147 149.706 178.644 149.472L179.173 147.736C179.659 147.971 180.187 148.163 180.758 148.314C181.328 148.449 181.906 148.516 182.493 148.516C183.248 148.516 183.844 148.382 184.28 148.113C184.732 147.845 184.959 147.4 184.959 146.78C184.959 146.243 184.766 145.866 184.38 145.648C183.995 145.413 183.441 145.186 182.72 144.968L181.94 144.717C180.85 144.365 180.036 143.929 179.5 143.409C178.98 142.872 178.72 142.184 178.72 141.346C178.72 140.843 178.829 140.381 179.047 139.962C179.265 139.543 179.558 139.19 179.927 138.905C180.313 138.62 180.766 138.402 181.286 138.251C181.806 138.084 182.376 138 182.997 138C183.584 138 184.187 138.058 184.808 138.176C185.445 138.276 186.049 138.453 186.619 138.704L186.116 140.39Z" fill="#868686"/>
<path d="M199.66 144.339H191.182V144.44C191.182 145.748 191.534 146.755 192.238 147.459C192.959 148.163 193.932 148.516 195.157 148.516C195.794 148.516 196.356 148.465 196.842 148.365C197.345 148.264 197.89 148.096 198.477 147.862L198.93 149.497C198.444 149.715 197.865 149.891 197.194 150.025C196.54 150.159 195.836 150.226 195.081 150.226C194.226 150.226 193.421 150.109 192.666 149.874C191.928 149.639 191.274 149.279 190.704 148.792C190.133 148.289 189.68 147.652 189.345 146.88C189.026 146.109 188.867 145.186 188.867 144.113C188.867 143.191 189.001 142.352 189.27 141.597C189.555 140.843 189.949 140.205 190.452 139.685C190.955 139.149 191.559 138.738 192.263 138.453C192.985 138.151 193.79 138 194.679 138C195.433 138 196.113 138.125 196.716 138.377C197.337 138.629 197.865 138.981 198.301 139.434C198.737 139.887 199.073 140.432 199.308 141.069C199.542 141.706 199.66 142.411 199.66 143.182V144.339ZM197.37 142.755C197.37 142.318 197.312 141.916 197.194 141.547C197.094 141.161 196.926 140.826 196.691 140.541C196.473 140.255 196.188 140.029 195.836 139.861C195.484 139.694 195.056 139.61 194.553 139.61C193.63 139.61 192.876 139.903 192.289 140.49C191.718 141.077 191.366 141.849 191.232 142.805L197.37 142.755Z" fill="#868686"/>
<path d="M207.675 142.1C207.675 141.446 207.792 140.868 208.027 140.365C208.262 139.845 208.589 139.409 209.008 139.056C209.444 138.704 209.956 138.444 210.543 138.276C211.13 138.092 211.767 138 212.455 138C212.706 138 212.95 138.016 213.184 138.05C213.419 138.084 213.654 138.125 213.889 138.176H218.996V139.811H218.216L216.203 139.534C216.522 139.87 216.765 140.255 216.933 140.692C217.117 141.128 217.21 141.589 217.21 142.075C217.21 142.729 217.092 143.316 216.857 143.836C216.623 144.339 216.296 144.767 215.876 145.119C215.457 145.472 214.954 145.74 214.367 145.924C213.78 146.092 213.142 146.176 212.455 146.176C211.935 146.176 211.482 146.142 211.096 146.075C210.71 146.21 210.442 146.386 210.291 146.604C210.14 146.805 210.065 147.023 210.065 147.258C210.065 147.644 210.191 147.904 210.442 148.038C210.71 148.172 211.063 148.239 211.499 148.239H214.618C215.927 148.239 216.925 148.541 217.612 149.145C218.317 149.732 218.669 150.537 218.669 151.56C218.669 152.214 218.526 152.801 218.241 153.321C217.956 153.841 217.545 154.285 217.008 154.654C216.488 155.023 215.851 155.3 215.096 155.484C214.342 155.686 213.495 155.786 212.555 155.786C210.845 155.786 209.478 155.476 208.455 154.855C207.448 154.252 206.945 153.354 206.945 152.164C206.945 151.543 207.138 151.023 207.524 150.604C207.926 150.184 208.446 149.866 209.084 149.648C208.748 149.413 208.497 149.17 208.329 148.918C208.161 148.65 208.077 148.298 208.077 147.862C208.077 147.342 208.228 146.897 208.53 146.528C208.849 146.159 209.276 145.866 209.813 145.648C209.142 145.346 208.614 144.91 208.228 144.339C207.859 143.752 207.675 143.006 207.675 142.1ZM210.367 150C209.511 150.386 209.084 150.99 209.084 151.811C209.084 153.287 210.274 154.025 212.656 154.025C213.36 154.025 213.956 153.958 214.442 153.824C214.929 153.69 215.323 153.514 215.625 153.296C215.927 153.078 216.145 152.834 216.279 152.566C216.43 152.298 216.505 152.021 216.505 151.736C216.505 151.031 216.262 150.562 215.776 150.327C215.306 150.109 214.711 150 213.989 150H210.367ZM214.971 142.151C214.971 141.262 214.736 140.608 214.266 140.188C213.813 139.769 213.21 139.559 212.455 139.559C211.7 139.559 211.088 139.769 210.618 140.188C210.165 140.608 209.939 141.228 209.939 142.05C209.939 142.922 210.165 143.568 210.618 143.987C211.088 144.39 211.7 144.591 212.455 144.591C213.21 144.591 213.813 144.39 214.266 143.987C214.736 143.585 214.971 142.973 214.971 142.151Z" fill="#868686"/>
<path d="M221.411 150V138.176H223.072L223.449 140.541C223.734 139.786 224.204 139.174 224.858 138.704C225.512 138.234 226.267 138 227.122 138C227.558 138 227.919 138.033 228.204 138.1C228.489 138.167 228.749 138.251 228.984 138.352L228.556 140.289C228.355 140.188 228.129 140.105 227.877 140.037C227.642 139.97 227.357 139.937 227.022 139.937C226.535 139.937 226.082 140.021 225.663 140.188C225.261 140.356 224.9 140.608 224.581 140.943C224.279 141.279 224.036 141.698 223.852 142.201C223.684 142.687 223.6 143.249 223.6 143.887V150H221.411Z" fill="#868686"/>
<path d="M240.271 144.339H231.793V144.44C231.793 145.748 232.145 146.755 232.85 147.459C233.571 148.163 234.544 148.516 235.768 148.516C236.405 148.516 236.967 148.465 237.454 148.365C237.957 148.264 238.502 148.096 239.089 147.862L239.542 149.497C239.055 149.715 238.477 149.891 237.806 150.025C237.152 150.159 236.447 150.226 235.692 150.226C234.837 150.226 234.032 150.109 233.277 149.874C232.539 149.639 231.885 149.279 231.315 148.792C230.745 148.289 230.292 147.652 229.956 146.88C229.638 146.109 229.478 145.186 229.478 144.113C229.478 143.191 229.613 142.352 229.881 141.597C230.166 140.843 230.56 140.205 231.063 139.685C231.567 139.149 232.17 138.738 232.875 138.453C233.596 138.151 234.401 138 235.29 138C236.045 138 236.724 138.125 237.328 138.377C237.948 138.629 238.477 138.981 238.913 139.434C239.349 139.887 239.684 140.432 239.919 141.069C240.154 141.706 240.271 142.411 240.271 143.182V144.339ZM237.982 142.755C237.982 142.318 237.923 141.916 237.806 141.547C237.705 141.161 237.537 140.826 237.303 140.541C237.085 140.255 236.799 140.029 236.447 139.861C236.095 139.694 235.667 139.61 235.164 139.61C234.242 139.61 233.487 139.903 232.9 140.49C232.33 141.077 231.977 141.849 231.843 142.805L237.982 142.755Z" fill="#868686"/>
<path d="M243.011 139.232C243.414 139.031 243.791 138.855 244.143 138.704C244.495 138.536 244.848 138.402 245.2 138.302C245.552 138.201 245.913 138.125 246.282 138.075C246.651 138.025 247.053 138 247.489 138C248.143 138 248.739 138.075 249.275 138.226C249.829 138.36 250.298 138.595 250.684 138.931C251.087 139.266 251.397 139.71 251.615 140.264C251.833 140.801 251.942 141.48 251.942 142.302V150H250.106L249.829 148.692H249.779C249.259 149.245 248.688 149.639 248.068 149.874C247.447 150.109 246.76 150.226 246.005 150.226C245.435 150.226 244.906 150.151 244.42 150C243.95 149.832 243.539 149.606 243.187 149.321C242.835 149.019 242.558 148.658 242.357 148.239C242.172 147.82 242.08 147.35 242.08 146.83C242.08 145.589 242.567 144.65 243.539 144.012C244.529 143.358 245.829 143.031 247.439 143.031H249.703V142.025C249.703 141.17 249.485 140.591 249.049 140.289C248.613 139.97 248.026 139.811 247.288 139.811C246.852 139.811 246.349 139.887 245.778 140.037C245.225 140.172 244.588 140.44 243.866 140.843L243.011 139.232ZM249.728 144.541L247.867 144.591C246.609 144.625 245.711 144.851 245.175 145.27C244.655 145.673 244.395 146.168 244.395 146.755C244.395 147.107 244.453 147.409 244.571 147.66C244.688 147.895 244.839 148.08 245.024 148.214C245.225 148.348 245.451 148.449 245.703 148.516C245.971 148.566 246.248 148.591 246.533 148.591C247.087 148.591 247.648 148.465 248.219 148.214C248.789 147.945 249.292 147.526 249.728 146.956V144.541Z" fill="#868686"/>
<path d="M261.531 139.836H258.059V146.704C258.059 147.291 258.202 147.685 258.487 147.887C258.789 148.088 259.174 148.189 259.644 148.189C259.979 148.189 260.348 148.155 260.751 148.088C261.153 148.004 261.506 147.912 261.808 147.811L262.16 149.497C261.824 149.631 261.397 149.748 260.877 149.849C260.357 149.95 259.812 150 259.241 150C258.067 150 257.212 149.748 256.675 149.245C256.139 148.725 255.87 147.979 255.87 147.006V139.836H254.109V138.176H255.87V134.402H258.059V138.176H261.531V139.836Z" fill="#868686"/>
<path d="M270.158 150V132.138H272.322V150H270.158Z" fill="#868686"/>
<path d="M286.699 143.962C286.699 144.952 286.548 145.841 286.246 146.629C285.944 147.4 285.525 148.054 284.988 148.591C284.468 149.128 283.856 149.539 283.152 149.824C282.447 150.092 281.684 150.226 280.862 150.226C280.041 150.226 279.277 150.101 278.573 149.849C277.885 149.581 277.282 149.195 276.762 148.692C276.258 148.172 275.856 147.543 275.554 146.805C275.269 146.05 275.126 145.186 275.126 144.214C275.126 143.224 275.277 142.344 275.579 141.572C275.881 140.801 276.292 140.155 276.812 139.635C277.349 139.098 277.969 138.696 278.674 138.427C279.378 138.142 280.141 138 280.963 138C281.785 138 282.54 138.125 283.227 138.377C283.932 138.629 284.535 139.006 285.039 139.509C285.558 140.012 285.961 140.641 286.246 141.396C286.548 142.134 286.699 142.989 286.699 143.962ZM284.384 144.088C284.384 143.3 284.284 142.629 284.083 142.075C283.881 141.522 283.613 141.069 283.277 140.717C282.959 140.365 282.59 140.113 282.171 139.962C281.751 139.794 281.324 139.71 280.887 139.71C280.451 139.71 280.024 139.777 279.604 139.912C279.185 140.046 278.816 140.281 278.497 140.616C278.179 140.952 277.919 141.404 277.718 141.975C277.533 142.528 277.441 143.233 277.441 144.088C277.441 144.876 277.541 145.555 277.743 146.126C277.944 146.679 278.204 147.132 278.523 147.484C278.858 147.836 279.235 148.096 279.655 148.264C280.074 148.432 280.502 148.516 280.938 148.516C281.374 148.516 281.802 148.449 282.221 148.314C282.64 148.163 283.009 147.92 283.328 147.585C283.646 147.233 283.898 146.78 284.083 146.226C284.284 145.656 284.384 144.943 284.384 144.088Z" fill="#868686"/>
<path d="M300.236 143.962C300.236 144.952 300.085 145.841 299.783 146.629C299.481 147.4 299.062 148.054 298.525 148.591C298.005 149.128 297.393 149.539 296.689 149.824C295.984 150.092 295.221 150.226 294.399 150.226C293.578 150.226 292.814 150.101 292.11 149.849C291.422 149.581 290.819 149.195 290.299 148.692C289.796 148.172 289.393 147.543 289.091 146.805C288.806 146.05 288.663 145.186 288.663 144.214C288.663 143.224 288.814 142.344 289.116 141.572C289.418 140.801 289.829 140.155 290.349 139.635C290.886 139.098 291.506 138.696 292.211 138.427C292.915 138.142 293.678 138 294.5 138C295.322 138 296.077 138.125 296.764 138.377C297.469 138.629 298.073 139.006 298.576 139.509C299.096 140.012 299.498 140.641 299.783 141.396C300.085 142.134 300.236 142.989 300.236 143.962ZM297.922 144.088C297.922 143.3 297.821 142.629 297.62 142.075C297.418 141.522 297.15 141.069 296.815 140.717C296.496 140.365 296.127 140.113 295.708 139.962C295.288 139.794 294.861 139.71 294.425 139.71C293.989 139.71 293.561 139.777 293.142 139.912C292.722 140.046 292.353 140.281 292.035 140.616C291.716 140.952 291.456 141.404 291.255 141.975C291.07 142.528 290.978 143.233 290.978 144.088C290.978 144.876 291.079 145.555 291.28 146.126C291.481 146.679 291.741 147.132 292.06 147.484C292.395 147.836 292.773 148.096 293.192 148.264C293.611 148.432 294.039 148.516 294.475 148.516C294.911 148.516 295.339 148.449 295.758 148.314C296.177 148.163 296.546 147.92 296.865 147.585C297.184 147.233 297.435 146.78 297.62 146.226C297.821 145.656 297.922 144.943 297.922 144.088Z" fill="#868686"/>
<path d="M305.144 145.673V150H302.955V132.138H305.144V143.258L309.899 138.176H312.641L307.786 143.157L312.868 150H310.251L306.326 144.49L305.144 145.673Z" fill="#868686"/>
<path d="M315.026 150V138.176H317.24V150H315.026ZM316.133 135.132C315.747 135.132 315.412 135.006 315.127 134.754C314.858 134.486 314.724 134.159 314.724 133.773C314.724 133.387 314.858 133.06 315.127 132.792C315.412 132.524 315.747 132.389 316.133 132.389C316.502 132.389 316.829 132.524 317.114 132.792C317.399 133.06 317.542 133.387 317.542 133.773C317.542 134.159 317.399 134.486 317.114 134.754C316.829 135.006 316.502 135.132 316.133 135.132Z" fill="#868686"/>
<path d="M323.079 150H320.865V138.176H322.601L322.928 139.811C323.515 139.224 324.127 138.78 324.764 138.478C325.419 138.159 326.165 138 327.004 138C328.211 138 329.159 138.343 329.846 139.031C330.534 139.702 330.878 140.641 330.878 141.849V150H328.664V142.176C328.664 141.455 328.471 140.884 328.085 140.465C327.716 140.029 327.146 139.811 326.375 139.811C325.201 139.811 324.102 140.339 323.079 141.396V150Z" fill="#868686"/>
<path d="M334.005 142.1C334.005 141.446 334.122 140.868 334.357 140.365C334.592 139.845 334.919 139.409 335.338 139.056C335.774 138.704 336.286 138.444 336.873 138.276C337.46 138.092 338.097 138 338.785 138C339.037 138 339.28 138.016 339.514 138.05C339.749 138.084 339.984 138.125 340.219 138.176H345.326V139.811H344.546L342.533 139.534C342.852 139.87 343.095 140.255 343.263 140.692C343.448 141.128 343.54 141.589 343.54 142.075C343.54 142.729 343.422 143.316 343.188 143.836C342.953 144.339 342.626 144.767 342.206 145.119C341.787 145.472 341.284 145.74 340.697 145.924C340.11 146.092 339.473 146.176 338.785 146.176C338.265 146.176 337.812 146.142 337.426 146.075C337.041 146.21 336.772 146.386 336.621 146.604C336.47 146.805 336.395 147.023 336.395 147.258C336.395 147.644 336.521 147.904 336.772 148.038C337.041 148.172 337.393 148.239 337.829 148.239H340.949C342.257 148.239 343.255 148.541 343.942 149.145C344.647 149.732 344.999 150.537 344.999 151.56C344.999 152.214 344.856 152.801 344.571 153.321C344.286 153.841 343.875 154.285 343.339 154.654C342.819 155.023 342.181 155.3 341.426 155.484C340.672 155.686 339.825 155.786 338.886 155.786C337.175 155.786 335.808 155.476 334.785 154.855C333.778 154.252 333.275 153.354 333.275 152.164C333.275 151.543 333.468 151.023 333.854 150.604C334.257 150.184 334.776 149.866 335.414 149.648C335.078 149.413 334.827 149.17 334.659 148.918C334.491 148.65 334.407 148.298 334.407 147.862C334.407 147.342 334.558 146.897 334.86 146.528C335.179 146.159 335.607 145.866 336.143 145.648C335.472 145.346 334.944 144.91 334.558 144.339C334.189 143.752 334.005 143.006 334.005 142.1ZM336.697 150C335.841 150.386 335.414 150.99 335.414 151.811C335.414 153.287 336.605 154.025 338.986 154.025C339.691 154.025 340.286 153.958 340.772 153.824C341.259 153.69 341.653 153.514 341.955 153.296C342.257 153.078 342.475 152.834 342.609 152.566C342.76 152.298 342.835 152.021 342.835 151.736C342.835 151.031 342.592 150.562 342.106 150.327C341.636 150.109 341.041 150 340.32 150H336.697ZM341.301 142.151C341.301 141.262 341.066 140.608 340.596 140.188C340.143 139.769 339.54 139.559 338.785 139.559C338.03 139.559 337.418 139.769 336.948 140.188C336.496 140.608 336.269 141.228 336.269 142.05C336.269 142.922 336.496 143.568 336.948 143.987C337.418 144.39 338.03 144.591 338.785 144.591C339.54 144.591 340.143 144.39 340.596 143.987C341.066 143.585 341.301 142.973 341.301 142.151Z" fill="#868686"/>
<path d="M363.432 144.339H354.954V144.44C354.954 145.748 355.306 146.755 356.01 147.459C356.732 148.163 357.704 148.516 358.929 148.516C359.566 148.516 360.128 148.465 360.614 148.365C361.118 148.264 361.663 148.096 362.25 147.862L362.702 149.497C362.216 149.715 361.637 149.891 360.967 150.025C360.312 150.159 359.608 150.226 358.853 150.226C357.998 150.226 357.193 150.109 356.438 149.874C355.7 149.639 355.046 149.279 354.476 148.792C353.906 148.289 353.453 147.652 353.117 146.88C352.799 146.109 352.639 145.186 352.639 144.113C352.639 143.191 352.773 142.352 353.042 141.597C353.327 140.843 353.721 140.205 354.224 139.685C354.727 139.149 355.331 138.738 356.036 138.453C356.757 138.151 357.562 138 358.451 138C359.205 138 359.885 138.125 360.489 138.377C361.109 138.629 361.637 138.981 362.073 139.434C362.51 139.887 362.845 140.432 363.08 141.069C363.315 141.706 363.432 142.411 363.432 143.182V144.339ZM361.143 142.755C361.143 142.318 361.084 141.916 360.967 141.547C360.866 141.161 360.698 140.826 360.463 140.541C360.245 140.255 359.96 140.029 359.608 139.861C359.256 139.694 358.828 139.61 358.325 139.61C357.403 139.61 356.648 139.903 356.061 140.49C355.491 141.077 355.138 141.849 355.004 142.805L361.143 142.755Z" fill="#868686"/>
<path d="M368.26 150H366.046V138.176H367.757L368.084 139.811C368.637 139.258 369.233 138.821 369.87 138.503C370.507 138.167 371.271 138 372.159 138C372.998 138 373.686 138.176 374.222 138.528C374.759 138.863 375.162 139.333 375.43 139.937C376.017 139.316 376.663 138.838 377.367 138.503C378.072 138.167 378.851 138 379.707 138C380.914 138 381.82 138.343 382.424 139.031C383.044 139.702 383.355 140.641 383.355 141.849V150H381.141V142.251C381.141 141.463 380.973 140.859 380.638 140.44C380.302 140.021 379.749 139.811 378.977 139.811C377.837 139.811 376.772 140.323 375.782 141.346C375.799 141.43 375.807 141.513 375.807 141.597C375.807 141.681 375.807 141.765 375.807 141.849V150H373.593V142.251C373.593 141.463 373.426 140.859 373.09 140.44C372.755 140.021 372.201 139.811 371.43 139.811C370.289 139.811 369.233 140.348 368.26 141.421V150Z" fill="#868686"/>
<path d="M386.908 139.232C387.31 139.031 387.687 138.855 388.04 138.704C388.392 138.536 388.744 138.402 389.096 138.302C389.448 138.201 389.809 138.125 390.178 138.075C390.547 138.025 390.95 138 391.386 138C392.04 138 392.635 138.075 393.172 138.226C393.725 138.36 394.195 138.595 394.581 138.931C394.983 139.266 395.294 139.71 395.512 140.264C395.73 140.801 395.839 141.48 395.839 142.302V150H394.002L393.725 148.692H393.675C393.155 149.245 392.585 149.639 391.964 149.874C391.344 150.109 390.656 150.226 389.901 150.226C389.331 150.226 388.803 150.151 388.316 150C387.847 149.832 387.436 149.606 387.084 149.321C386.731 149.019 386.455 148.658 386.253 148.239C386.069 147.82 385.977 147.35 385.977 146.83C385.977 145.589 386.463 144.65 387.436 144.012C388.425 143.358 389.725 143.031 391.335 143.031H393.6V142.025C393.6 141.17 393.382 140.591 392.945 140.289C392.509 139.97 391.922 139.811 391.184 139.811C390.748 139.811 390.245 139.887 389.675 140.037C389.121 140.172 388.484 140.44 387.763 140.843L386.908 139.232ZM393.625 144.541L391.763 144.591C390.505 144.625 389.608 144.851 389.071 145.27C388.551 145.673 388.291 146.168 388.291 146.755C388.291 147.107 388.35 147.409 388.467 147.66C388.585 147.895 388.736 148.08 388.92 148.214C389.121 148.348 389.348 148.449 389.599 148.516C389.868 148.566 390.145 148.591 390.43 148.591C390.983 148.591 391.545 148.465 392.115 148.214C392.685 147.945 393.189 147.526 393.625 146.956V144.541Z" fill="#868686"/>
<path d="M399.443 150V138.176H401.657V150H399.443ZM400.55 135.132C400.164 135.132 399.828 135.006 399.543 134.754C399.275 134.486 399.141 134.159 399.141 133.773C399.141 133.387 399.275 133.06 399.543 132.792C399.828 132.524 400.164 132.389 400.55 132.389C400.919 132.389 401.246 132.524 401.531 132.792C401.816 133.06 401.958 133.387 401.958 133.773C401.958 134.159 401.816 134.486 401.531 134.754C401.246 135.006 400.919 135.132 400.55 135.132Z" fill="#868686"/>
<path d="M405.382 150V132.138H407.546V150H405.382Z" fill="#868686"/>
<path d="M417.721 140.39C417.168 140.121 416.665 139.937 416.212 139.836C415.759 139.736 415.306 139.685 414.853 139.685C414.048 139.685 413.453 139.836 413.067 140.138C412.682 140.423 412.489 140.809 412.489 141.295C412.489 141.648 412.623 141.958 412.891 142.226C413.16 142.478 413.721 142.729 414.577 142.981L415.331 143.207C416.455 143.543 417.302 143.979 417.872 144.516C418.459 145.035 418.753 145.748 418.753 146.654C418.753 147.727 418.35 148.591 417.545 149.245C416.757 149.899 415.65 150.226 414.225 150.226C413.47 150.226 412.74 150.159 412.036 150.025C411.348 149.891 410.753 149.706 410.25 149.472L410.778 147.736C411.264 147.971 411.793 148.163 412.363 148.314C412.933 148.449 413.512 148.516 414.099 148.516C414.853 148.516 415.449 148.382 415.885 148.113C416.338 147.845 416.564 147.4 416.564 146.78C416.564 146.243 416.371 145.866 415.986 145.648C415.6 145.413 415.046 145.186 414.325 144.968L413.545 144.717C412.455 144.365 411.642 143.929 411.105 143.409C410.585 142.872 410.325 142.184 410.325 141.346C410.325 140.843 410.434 140.381 410.652 139.962C410.87 139.543 411.164 139.19 411.533 138.905C411.918 138.62 412.371 138.402 412.891 138.251C413.411 138.084 413.981 138 414.602 138C415.189 138 415.793 138.058 416.413 138.176C417.051 138.276 417.654 138.453 418.225 138.704L417.721 140.39Z" fill="#868686"/>
<path d="M434.751 149.145C434.315 149.53 433.829 149.807 433.292 149.975C432.772 150.143 432.177 150.226 431.506 150.226C430.667 150.226 429.912 150.084 429.241 149.799C428.587 149.497 428.034 149.086 427.581 148.566C427.128 148.029 426.776 147.384 426.524 146.629C426.29 145.874 426.172 145.027 426.172 144.088C426.172 143.216 426.29 142.411 426.524 141.673C426.759 140.918 427.103 140.272 427.556 139.736C428.025 139.199 428.596 138.78 429.267 138.478C429.954 138.159 430.734 138 431.606 138C431.858 138 432.135 138.033 432.436 138.1C432.738 138.151 433.032 138.234 433.317 138.352C433.619 138.469 433.904 138.62 434.172 138.805C434.441 138.972 434.676 139.165 434.877 139.383L435.128 138.176H436.965V155.786H434.751V149.145ZM434.751 141.195C434.449 140.775 434.055 140.423 433.569 140.138C433.099 139.836 432.571 139.685 431.984 139.685C431.497 139.685 431.036 139.769 430.6 139.937C430.181 140.088 429.803 140.339 429.468 140.692C429.149 141.044 428.889 141.497 428.688 142.05C428.503 142.587 428.411 143.241 428.411 144.012C428.411 145.505 428.722 146.629 429.342 147.384C429.979 148.138 430.801 148.516 431.808 148.516C432.428 148.516 432.99 148.398 433.493 148.163C433.996 147.912 434.416 147.593 434.751 147.207V141.195Z" fill="#868686"/>
<path d="M448.315 138.176H450.528V150H448.793L448.491 148.516H448.39C447.954 149.002 447.409 149.413 446.755 149.748C446.117 150.067 445.371 150.226 444.516 150.226C443.291 150.226 442.293 149.883 441.522 149.195C440.767 148.491 440.39 147.434 440.39 146.025V138.176H442.604V145.748C442.604 146.251 442.662 146.679 442.78 147.031C442.914 147.384 443.082 147.669 443.283 147.887C443.501 148.088 443.753 148.239 444.038 148.34C444.323 148.423 444.633 148.465 444.969 148.465C445.639 148.465 446.243 148.323 446.78 148.038C447.317 147.753 447.828 147.358 448.315 146.855V138.176Z" fill="#868686"/>
<path d="M454.304 150V138.176H456.518V150H454.304ZM455.411 135.132C455.025 135.132 454.689 135.006 454.404 134.754C454.136 134.486 454.002 134.159 454.002 133.773C454.002 133.387 454.136 133.06 454.404 132.792C454.689 132.524 455.025 132.389 455.411 132.389C455.78 132.389 456.107 132.524 456.392 132.792C456.677 133.06 456.819 133.387 456.819 133.773C456.819 134.159 456.677 134.486 456.392 134.754C456.107 135.006 455.78 135.132 455.411 135.132Z" fill="#868686"/>
<path d="M465.753 148.516C466.29 148.516 466.759 148.457 467.162 148.34C467.564 148.222 467.958 148.071 468.344 147.887L468.822 149.547C467.916 150 466.835 150.226 465.577 150.226C464.721 150.226 463.916 150.101 463.162 149.849C462.424 149.597 461.77 149.22 461.199 148.717C460.646 148.197 460.21 147.56 459.891 146.805C459.572 146.033 459.413 145.136 459.413 144.113C459.413 143.174 459.564 142.327 459.866 141.572C460.168 140.817 460.587 140.18 461.124 139.66C461.661 139.123 462.306 138.712 463.061 138.427C463.816 138.142 464.646 138 465.552 138C466.072 138 466.575 138.042 467.061 138.125C467.564 138.193 468.134 138.369 468.772 138.654L468.269 140.339C467.497 139.903 466.667 139.685 465.778 139.685C464.554 139.685 463.564 140.071 462.809 140.843C462.055 141.597 461.677 142.662 461.677 144.038C461.677 144.893 461.795 145.606 462.03 146.176C462.264 146.746 462.575 147.207 462.96 147.56C463.346 147.895 463.782 148.138 464.269 148.289C464.755 148.44 465.25 148.516 465.753 148.516Z" fill="#868686"/>
<path d="M473.486 145.673V150H471.297V132.138H473.486V143.258L478.241 138.176H480.983L476.128 143.157L481.209 150H478.593L474.668 144.49L473.486 145.673Z" fill="#868686"/>
<path d="M483.116 150V132.138H485.28V150H483.116Z" fill="#868686"/>
<path d="M487.33 138.176H489.694L492.21 144.943L493.066 147.761H493.116L493.971 144.943L496.261 138.176H498.525L493.971 151.006C493.468 152.432 492.831 153.547 492.059 154.352C491.304 155.157 490.399 155.744 489.342 156.113L488.386 154.352C489.174 154.05 489.87 153.614 490.474 153.044C491.095 152.474 491.573 151.686 491.908 150.679L492.135 150L487.33 138.176Z" fill="#868686"/>
<path d="M506.113 139.232C506.515 139.031 506.893 138.855 507.245 138.704C507.597 138.536 507.949 138.402 508.302 138.302C508.654 138.201 509.014 138.125 509.383 138.075C509.752 138.025 510.155 138 510.591 138C511.245 138 511.84 138.075 512.377 138.226C512.931 138.36 513.4 138.595 513.786 138.931C514.189 139.266 514.499 139.71 514.717 140.264C514.935 140.801 515.044 141.48 515.044 142.302V150H513.207L512.931 148.692H512.88C512.36 149.245 511.79 149.639 511.17 149.874C510.549 150.109 509.861 150.226 509.107 150.226C508.536 150.226 508.008 150.151 507.522 150C507.052 149.832 506.641 149.606 506.289 149.321C505.937 149.019 505.66 148.658 505.459 148.239C505.274 147.82 505.182 147.35 505.182 146.83C505.182 145.589 505.668 144.65 506.641 144.012C507.631 143.358 508.931 143.031 510.541 143.031H512.805V142.025C512.805 141.17 512.587 140.591 512.151 140.289C511.715 139.97 511.128 139.811 510.39 139.811C509.954 139.811 509.45 139.887 508.88 140.037C508.327 140.172 507.689 140.44 506.968 140.843L506.113 139.232ZM512.83 144.541L510.968 144.591C509.71 144.625 508.813 144.851 508.276 145.27C507.757 145.673 507.497 146.168 507.497 146.755C507.497 147.107 507.555 147.409 507.673 147.66C507.79 147.895 507.941 148.08 508.126 148.214C508.327 148.348 508.553 148.449 508.805 148.516C509.073 148.566 509.35 148.591 509.635 148.591C510.188 148.591 510.75 148.465 511.321 148.214C511.891 147.945 512.394 147.526 512.83 146.956V144.541Z" fill="#868686"/>
<path d="M520.51 150H518.296V138.176H520.032L520.359 139.811C520.946 139.224 521.558 138.78 522.195 138.478C522.849 138.159 523.596 138 524.434 138C525.642 138 526.59 138.343 527.277 139.031C527.965 139.702 528.309 140.641 528.309 141.849V150H526.095V142.176C526.095 141.455 525.902 140.884 525.516 140.465C525.147 140.029 524.577 139.811 523.805 139.811C522.631 139.811 521.533 140.339 520.51 141.396V150Z" fill="#868686"/>
<path d="M539.584 132.138H541.798V150H539.936L539.659 148.692H539.584C539.064 149.228 538.536 149.623 537.999 149.874C537.479 150.109 536.817 150.226 536.012 150.226C535.374 150.226 534.754 150.101 534.15 149.849C533.563 149.597 533.034 149.22 532.565 148.717C532.095 148.214 531.718 147.585 531.433 146.83C531.148 146.059 531.005 145.153 531.005 144.113C531.005 143.191 531.122 142.352 531.357 141.597C531.609 140.843 531.961 140.197 532.414 139.66C532.867 139.123 533.42 138.712 534.074 138.427C534.728 138.142 535.475 138 536.313 138C536.934 138 537.521 138.1 538.074 138.302C538.645 138.486 539.148 138.771 539.584 139.157V132.138ZM539.584 141.019C538.796 140.13 537.865 139.685 536.791 139.685C536.339 139.685 535.894 139.769 535.458 139.937C535.039 140.088 534.661 140.339 534.326 140.692C534.007 141.044 533.747 141.497 533.546 142.05C533.345 142.604 533.244 143.266 533.244 144.038C533.244 144.843 533.336 145.53 533.521 146.101C533.705 146.654 533.949 147.115 534.25 147.484C534.569 147.836 534.921 148.096 535.307 148.264C535.71 148.432 536.112 148.516 536.515 148.516C537.773 148.516 538.796 147.971 539.584 146.88V141.019Z" fill="#868686"/>
<path d="M560.863 144.339H552.385V144.44C552.385 145.748 552.737 146.755 553.441 147.459C554.162 148.163 555.135 148.516 556.36 148.516C556.997 148.516 557.559 148.465 558.045 148.365C558.548 148.264 559.093 148.096 559.68 147.862L560.133 149.497C559.647 149.715 559.068 149.891 558.397 150.025C557.743 150.159 557.039 150.226 556.284 150.226C555.429 150.226 554.624 150.109 553.869 149.874C553.131 149.639 552.477 149.279 551.907 148.792C551.336 148.289 550.884 147.652 550.548 146.88C550.229 146.109 550.07 145.186 550.07 144.113C550.07 143.191 550.204 142.352 550.473 141.597C550.758 140.843 551.152 140.205 551.655 139.685C552.158 139.149 552.762 138.738 553.466 138.453C554.188 138.151 554.993 138 555.882 138C556.636 138 557.316 138.125 557.919 138.377C558.54 138.629 559.068 138.981 559.504 139.434C559.94 139.887 560.276 140.432 560.511 141.069C560.745 141.706 560.863 142.411 560.863 143.182V144.339ZM558.573 142.755C558.573 142.318 558.515 141.916 558.397 141.547C558.297 141.161 558.129 140.826 557.894 140.541C557.676 140.255 557.391 140.029 557.039 139.861C556.687 139.694 556.259 139.61 555.756 139.61C554.833 139.61 554.079 139.903 553.492 140.49C552.921 141.077 552.569 141.849 552.435 142.805L558.573 142.755Z" fill="#868686"/>
<path d="M563.603 139.232C564.005 139.031 564.383 138.855 564.735 138.704C565.087 138.536 565.439 138.402 565.791 138.302C566.144 138.201 566.504 138.125 566.873 138.075C567.242 138.025 567.645 138 568.081 138C568.735 138 569.33 138.075 569.867 138.226C570.42 138.36 570.89 138.595 571.276 138.931C571.678 139.266 571.989 139.71 572.207 140.264C572.425 140.801 572.534 141.48 572.534 142.302V150H570.697L570.42 148.692H570.37C569.85 149.245 569.28 149.639 568.659 149.874C568.039 150.109 567.351 150.226 566.596 150.226C566.026 150.226 565.498 150.151 565.012 150C564.542 149.832 564.131 149.606 563.779 149.321C563.427 149.019 563.15 148.658 562.949 148.239C562.764 147.82 562.672 147.35 562.672 146.83C562.672 145.589 563.158 144.65 564.131 144.012C565.121 143.358 566.42 143.031 568.03 143.031H570.295V142.025C570.295 141.17 570.077 140.591 569.641 140.289C569.205 139.97 568.617 139.811 567.88 139.811C567.443 139.811 566.94 139.887 566.37 140.037C565.817 140.172 565.179 140.44 564.458 140.843L563.603 139.232ZM570.32 144.541L568.458 144.591C567.2 144.625 566.303 144.851 565.766 145.27C565.246 145.673 564.986 146.168 564.986 146.755C564.986 147.107 565.045 147.409 565.162 147.66C565.28 147.895 565.431 148.08 565.615 148.214C565.817 148.348 566.043 148.449 566.295 148.516C566.563 148.566 566.84 148.591 567.125 148.591C567.678 148.591 568.24 148.465 568.81 148.214C569.381 147.945 569.884 147.526 570.32 146.956V144.541Z" fill="#868686"/>
<path d="M582.427 140.39C581.874 140.121 581.371 139.937 580.918 139.836C580.465 139.736 580.012 139.685 579.559 139.685C578.754 139.685 578.159 139.836 577.773 140.138C577.387 140.423 577.194 140.809 577.194 141.295C577.194 141.648 577.329 141.958 577.597 142.226C577.865 142.478 578.427 142.729 579.283 142.981L580.037 143.207C581.161 143.543 582.008 143.979 582.578 144.516C583.165 145.035 583.459 145.748 583.459 146.654C583.459 147.727 583.056 148.591 582.251 149.245C581.463 149.899 580.356 150.226 578.93 150.226C578.176 150.226 577.446 150.159 576.742 150.025C576.054 149.891 575.459 149.706 574.955 149.472L575.484 147.736C575.97 147.971 576.498 148.163 577.069 148.314C577.639 148.449 578.218 148.516 578.805 148.516C579.559 148.516 580.155 148.382 580.591 148.113C581.044 147.845 581.27 147.4 581.27 146.78C581.27 146.243 581.077 145.866 580.691 145.648C580.306 145.413 579.752 145.186 579.031 144.968L578.251 144.717C577.161 144.365 576.347 143.929 575.811 143.409C575.291 142.872 575.031 142.184 575.031 141.346C575.031 140.843 575.14 140.381 575.358 139.962C575.576 139.543 575.869 139.19 576.238 138.905C576.624 138.62 577.077 138.402 577.597 138.251C578.117 138.084 578.687 138 579.308 138C579.895 138 580.499 138.058 581.119 138.176C581.756 138.276 582.36 138.453 582.93 138.704L582.427 140.39Z" fill="#868686"/>
<path d="M586.383 150V138.176H588.597V150H586.383ZM587.49 135.132C587.104 135.132 586.769 135.006 586.483 134.754C586.215 134.486 586.081 134.159 586.081 133.773C586.081 133.387 586.215 133.06 586.483 132.792C586.769 132.524 587.104 132.389 587.49 132.389C587.859 132.389 588.186 132.524 588.471 132.792C588.756 133.06 588.899 133.387 588.899 133.773C588.899 134.159 588.756 134.486 588.471 134.754C588.186 135.006 587.859 135.132 587.49 135.132Z" fill="#868686"/>
<path d="M592.322 150V132.138H594.486V150H592.322Z" fill="#868686"/>
<path d="M596.536 138.176H598.9L601.416 144.943L602.272 147.761H602.322L603.177 144.943L605.467 138.176H607.731L603.177 151.006C602.674 152.432 602.037 153.547 601.265 154.352C600.511 155.157 599.605 155.744 598.548 156.113L597.592 154.352C598.381 154.05 599.077 153.614 599.68 153.044C600.301 152.474 600.779 151.686 601.114 150.679L601.341 150L596.536 138.176Z" fill="#868686"/>
<path d="M613.759 138.176H616.124L618.137 145.623L618.589 148.264H618.69L619.244 145.623L621.281 138.176H623.671L625.759 145.623L626.288 148.264H626.388L626.942 145.623L628.904 138.176H631.168L627.571 150H625.055L623.042 142.755L622.464 139.836L621.86 142.755L619.797 150H617.407L613.759 138.176Z" fill="#868686"/>
<path d="M633.456 150V138.176H635.67V150H633.456ZM634.563 135.132C634.177 135.132 633.841 135.006 633.556 134.754C633.288 134.486 633.154 134.159 633.154 133.773C633.154 133.387 633.288 133.06 633.556 132.792C633.841 132.524 634.177 132.389 634.563 132.389C634.932 132.389 635.259 132.524 635.544 132.792C635.829 133.06 635.971 133.387 635.971 133.773C635.971 134.159 635.829 134.486 635.544 134.754C635.259 135.006 634.932 135.132 634.563 135.132Z" fill="#868686"/>
<path d="M645.509 139.836H642.037V146.704C642.037 147.291 642.179 147.685 642.465 147.887C642.766 148.088 643.152 148.189 643.622 148.189C643.957 148.189 644.326 148.155 644.729 148.088C645.131 148.004 645.483 147.912 645.785 147.811L646.138 149.497C645.802 149.631 645.374 149.748 644.855 149.849C644.335 149.95 643.79 150 643.219 150C642.045 150 641.19 149.748 640.653 149.245C640.116 148.725 639.848 147.979 639.848 147.006V139.836H638.087V138.176H639.848V134.402H642.037V138.176H645.509V139.836Z" fill="#868686"/>
<path d="M650.698 150H648.484V132.138H650.698V139.685C651.251 139.199 651.863 138.796 652.534 138.478C653.205 138.159 653.943 138 654.748 138C655.402 138 655.972 138.1 656.459 138.302C656.945 138.486 657.339 138.754 657.641 139.107C657.96 139.442 658.195 139.845 658.346 140.314C658.513 140.784 658.597 141.295 658.597 141.849V150H656.383V142.402C656.383 141.497 656.199 140.843 655.83 140.44C655.461 140.021 654.899 139.811 654.144 139.811C653.574 139.811 652.995 139.954 652.408 140.239C651.838 140.524 651.268 140.926 650.698 141.446V150Z" fill="#868686"/>
<path d="M674.842 133.924C675.765 133.924 676.595 133.991 677.333 134.125C678.088 134.26 678.784 134.494 679.421 134.83L678.867 136.641C678.247 136.356 677.635 136.146 677.031 136.012C676.444 135.878 675.807 135.811 675.119 135.811C674.381 135.811 673.677 135.92 673.006 136.138C672.335 136.356 671.739 136.717 671.219 137.22C670.716 137.706 670.314 138.352 670.012 139.157C669.71 139.945 669.559 140.926 669.559 142.1C669.559 144.13 670.02 145.673 670.943 146.729C671.865 147.786 673.165 148.314 674.842 148.314C675.48 148.314 676.025 148.281 676.477 148.214C676.947 148.147 677.4 148.029 677.836 147.862V143.459H674.842V141.648H680V149.296C679.329 149.564 678.582 149.79 677.761 149.975C676.939 150.143 675.966 150.226 674.842 150.226C673.752 150.226 672.729 150.05 671.773 149.698C670.834 149.346 670.012 148.826 669.307 148.138C668.603 147.451 668.05 146.604 667.647 145.597C667.245 144.591 667.043 143.425 667.043 142.1C667.043 140.775 667.236 139.601 667.622 138.578C668.024 137.555 668.57 136.7 669.257 136.012C669.945 135.325 670.767 134.805 671.723 134.452C672.679 134.1 673.718 133.924 674.842 133.924Z" fill="#868686"/>
<path d="M694.017 143.962C694.017 144.952 693.866 145.841 693.564 146.629C693.262 147.4 692.843 148.054 692.306 148.591C691.786 149.128 691.174 149.539 690.469 149.824C689.765 150.092 689.002 150.226 688.18 150.226C687.358 150.226 686.595 150.101 685.891 149.849C685.203 149.581 684.599 149.195 684.079 148.692C683.576 148.172 683.174 147.543 682.872 146.805C682.587 146.05 682.444 145.186 682.444 144.214C682.444 143.224 682.595 142.344 682.897 141.572C683.199 140.801 683.61 140.155 684.13 139.635C684.666 139.098 685.287 138.696 685.991 138.427C686.696 138.142 687.459 138 688.281 138C689.102 138 689.857 138.125 690.545 138.377C691.249 138.629 691.853 139.006 692.356 139.509C692.876 140.012 693.279 140.641 693.564 141.396C693.866 142.134 694.017 142.989 694.017 143.962ZM691.702 144.088C691.702 143.3 691.602 142.629 691.4 142.075C691.199 141.522 690.931 141.069 690.595 140.717C690.277 140.365 689.908 140.113 689.488 139.962C689.069 139.794 688.641 139.71 688.205 139.71C687.769 139.71 687.341 139.777 686.922 139.912C686.503 140.046 686.134 140.281 685.815 140.616C685.497 140.952 685.237 141.404 685.035 141.975C684.851 142.528 684.759 143.233 684.759 144.088C684.759 144.876 684.859 145.555 685.06 146.126C685.262 146.679 685.522 147.132 685.84 147.484C686.176 147.836 686.553 148.096 686.973 148.264C687.392 148.432 687.819 148.516 688.256 148.516C688.692 148.516 689.119 148.449 689.539 148.314C689.958 148.163 690.327 147.92 690.646 147.585C690.964 147.233 691.216 146.78 691.4 146.226C691.602 145.656 691.702 144.943 691.702 144.088Z" fill="#868686"/>
<path d="M100.488 37.4449C106.627 37.4449 112.046 38.6918 116.746 41.1856C121.542 43.5835 125.282 47.3242 127.968 52.4077C130.749 57.3954 132.14 63.8217 132.14 71.6868V116H109.696V75.1398C109.696 68.9053 108.401 64.3013 105.811 61.3279C103.222 58.3545 99.5768 56.8678 94.8769 56.8678C91.6158 56.8678 88.6903 57.6352 86.1006 59.1698C83.5109 60.6086 81.4967 62.8146 80.0579 65.788C78.6192 68.7614 77.8998 72.5501 77.8998 77.154V116H55.4555V75.1398C55.4555 68.9053 54.1606 64.3013 51.5709 61.3279C49.0771 58.3545 45.4802 56.8678 40.7804 56.8678C37.5192 56.8678 34.5938 57.6352 32.0041 59.1698C29.4143 60.6086 27.4001 62.8146 25.9613 65.788C24.5226 68.7614 23.8032 72.5501 23.8032 77.154V116H1.35892V38.5958H22.7961V59.7453L18.7677 53.5587C21.4533 48.2834 25.242 44.3028 30.1337 41.6172C35.1213 38.8356 40.7804 37.4449 47.1108 37.4449C54.2086 37.4449 60.3952 39.2673 65.6705 42.9121C71.0418 46.461 74.5907 51.9282 76.3172 59.3137L68.4041 57.1556C70.9939 51.1129 75.1183 46.3171 80.7773 42.7682C86.5322 39.2193 93.1025 37.4449 100.488 37.4449Z" fill="url(#paint0_linear_110_2)"/>
<path d="M192.543 116V100.893L191.104 97.5841V70.5359C191.104 65.7401 189.617 61.9993 186.644 59.3137C183.766 56.628 179.306 55.2852 173.263 55.2852C169.139 55.2852 165.063 55.9566 161.034 57.2995C157.102 58.5464 153.745 60.2728 150.963 62.4789L142.906 46.7967C147.126 43.8233 152.21 41.5213 158.157 39.8907C164.103 38.2601 170.146 37.4449 176.285 37.4449C188.082 37.4449 197.242 40.2264 203.765 45.7895C210.287 51.3527 213.548 60.0331 213.548 71.8307V116H192.543ZM168.947 117.151C162.905 117.151 157.725 116.144 153.409 114.13C149.093 112.019 145.784 109.19 143.482 105.641C141.18 102.092 140.029 98.1117 140.029 93.6995C140.029 89.0956 141.132 85.0671 143.338 81.6141C145.64 78.1612 149.237 75.4755 154.128 73.5572C159.02 71.543 165.398 70.5359 173.263 70.5359H193.837V83.6284H175.709C170.434 83.6284 166.789 84.4916 164.775 86.2181C162.857 87.9446 161.897 90.1027 161.897 92.6924C161.897 95.5699 163 97.8719 165.206 99.5984C167.508 101.229 170.626 102.044 174.558 102.044C178.299 102.044 181.656 101.181 184.629 99.4545C187.603 97.6321 189.761 94.9944 191.104 91.5414L194.557 101.9C192.926 106.888 189.953 110.677 185.637 113.266C181.32 115.856 175.757 117.151 168.947 117.151Z" fill="url(#paint1_linear_110_2)"/>
<path d="M226.668 116V38.5958H249.112V116H226.668ZM237.89 27.8053C233.765 27.8053 230.408 26.6064 227.819 24.2085C225.229 21.8106 223.934 18.8372 223.934 15.2883C223.934 11.7394 225.229 8.766 227.819 6.36811C230.408 3.97021 233.765 2.77126 237.89 2.77126C242.014 2.77126 245.371 3.92225 247.961 6.22424C250.551 8.4303 251.846 11.3078 251.846 14.8567C251.846 18.5974 250.551 21.7147 247.961 24.2085C245.467 26.6064 242.11 27.8053 237.89 27.8053Z" fill="url(#paint2_linear_110_2)"/>
<path d="M262.748 116V9.24558H285.193V116H262.748Z" fill="url(#paint3_linear_110_2)"/>
<path d="M344.581 117.151C337.771 117.151 331.92 115.712 327.029 112.835C322.137 109.957 318.396 105.593 315.806 99.7422C313.217 93.7955 311.922 86.314 311.922 77.2979C311.922 68.1859 313.265 60.7045 315.95 54.8536C318.732 49.0027 322.569 44.6386 327.46 41.7611C332.352 38.8836 338.059 37.4449 344.581 37.4449C351.871 37.4449 358.393 39.0754 364.148 42.3366C369.999 45.5977 374.603 50.2017 377.96 56.1485C381.413 62.0953 383.139 69.1451 383.139 77.2979C383.139 85.3549 381.413 92.3567 377.96 98.3035C374.603 104.25 369.999 108.902 364.148 112.259C358.393 115.52 351.871 117.151 344.581 117.151ZM298.829 116V9.24558H321.274V54.2781L319.835 77.154L320.267 100.174V116H298.829ZM340.697 98.7351C344.437 98.7351 347.746 97.8719 350.624 96.1454C353.597 94.4189 355.947 91.9731 357.674 88.8078C359.496 85.5467 360.407 81.7101 360.407 77.2979C360.407 72.7899 359.496 68.9532 357.674 65.788C355.947 62.6228 353.597 60.1769 350.624 58.4504C347.746 56.724 344.437 55.8607 340.697 55.8607C336.956 55.8607 333.599 56.724 330.625 58.4504C327.652 60.1769 325.302 62.6228 323.576 65.788C321.849 68.9532 320.986 72.7899 320.986 77.2979C320.986 81.7101 321.849 85.5467 323.576 88.8078C325.302 91.9731 327.652 94.4189 330.625 96.1454C333.599 97.8719 336.956 98.7351 340.697 98.7351Z" fill="url(#paint4_linear_110_2)"/>
<path d="M392.409 116V38.5958H413.846V60.4647L410.825 54.1342C413.127 48.667 416.82 44.5426 421.903 41.7611C426.987 38.8836 433.173 37.4449 440.463 37.4449V58.1627C439.504 58.0668 438.641 58.0188 437.873 58.0188C437.106 57.9229 436.291 57.875 435.427 57.875C429.289 57.875 424.301 59.6494 420.465 63.1983C416.724 66.6513 414.854 72.0705 414.854 79.456V116H392.409Z" fill="url(#paint5_linear_110_2)"/>
<path d="M483.433 117.151C477.007 117.151 471.252 115.904 466.168 113.41C461.18 110.916 457.296 107.128 454.514 102.044C451.733 96.8648 450.342 90.2945 450.342 82.3335V38.5958H472.786V79.0244C472.786 85.4508 474.129 90.1986 476.815 93.2679C479.596 96.2413 483.481 97.728 488.469 97.728C491.922 97.728 494.991 97.0086 497.677 95.5699C500.362 94.0352 502.472 91.7333 504.007 88.664C505.542 85.4987 506.309 81.5662 506.309 76.8663V38.5958H528.753V116H507.46V94.7067L511.345 100.893C508.755 106.265 504.918 110.341 499.835 113.123C494.847 115.808 489.38 117.151 483.433 117.151Z" fill="url(#paint6_linear_110_2)"/>
<path d="M570.552 117.151C563.934 117.151 557.555 116.384 551.417 114.849C545.374 113.218 540.578 111.204 537.029 108.806L544.511 92.6924C548.06 94.8985 552.232 96.7209 557.028 98.1596C561.92 99.5025 566.715 100.174 571.415 100.174C576.595 100.174 580.239 99.5504 582.35 98.3035C584.556 97.0566 585.659 95.3301 585.659 93.124C585.659 91.3016 584.795 89.9588 583.069 89.0956C581.438 88.1364 579.232 87.417 576.451 86.9375C573.669 86.4579 570.6 85.9783 567.243 85.4987C563.982 85.0191 560.673 84.3957 557.316 83.6284C553.959 82.7651 550.889 81.5182 548.108 79.8876C545.326 78.2571 543.072 76.051 541.346 73.2694C539.715 70.4879 538.9 66.891 538.9 62.4789C538.9 57.5872 540.291 53.271 543.072 49.5303C545.95 45.7895 550.074 42.8641 555.445 40.754C560.817 38.5479 567.243 37.4449 574.724 37.4449C580 37.4449 585.371 38.0204 590.838 39.1713C596.305 40.3223 600.861 42.0009 604.506 44.2069L597.025 60.1769C593.284 57.9709 589.495 56.4842 585.659 55.7168C581.918 54.8536 578.273 54.422 574.724 54.422C569.737 54.422 566.092 55.0934 563.79 56.4362C561.488 57.779 560.337 59.5055 560.337 61.6157C560.337 63.534 561.152 64.9727 562.783 65.9319C564.509 66.891 566.763 67.6584 569.545 68.2339C572.326 68.8094 575.348 69.3369 578.609 69.8165C581.966 70.2001 585.323 70.8236 588.68 71.6868C592.037 72.5501 595.059 73.797 597.744 75.4276C600.526 76.9622 602.78 79.1203 604.506 81.9019C606.233 84.5875 607.096 88.1364 607.096 92.5486C607.096 97.3443 605.657 101.613 602.78 105.353C599.902 108.998 595.73 111.876 590.263 113.986C584.891 116.096 578.321 117.151 570.552 117.151Z" fill="url(#paint7_linear_110_2)"/>
<path d="M662.955 37.4449C669.094 37.4449 674.561 38.6918 679.357 41.1856C684.248 43.5835 688.085 47.3242 690.867 52.4077C693.648 57.3954 695.039 63.8217 695.039 71.6868V116H672.595V75.1398C672.595 68.9053 671.204 64.3013 668.422 61.3279C665.737 58.3545 661.9 56.8678 656.912 56.8678C653.363 56.8678 650.15 57.6352 647.273 59.1698C644.491 60.6086 642.285 62.8626 640.655 65.9319C639.12 69.0012 638.353 72.9337 638.353 77.7295V116H615.908V9.24558H638.353V60.0331L633.317 53.5587C636.099 48.3793 640.079 44.3988 645.259 41.6172C650.438 38.8356 656.337 37.4449 662.955 37.4449Z" fill="url(#paint8_linear_110_2)"/>
<path d="M5.12614 19.5959H10.45V23.2425H0.361359V6.10385H5.12614V19.5959Z" fill="#868686"/>
<path d="M20.0334 23.4126C18.4289 23.4126 16.9541 23.0399 15.6089 22.2944C14.2638 21.5327 13.1941 20.4873 12.4 19.1584C11.6221 17.8132 11.2331 16.2979 11.2331 14.6124C11.2331 12.9269 11.6221 11.4197 12.4 10.0907C13.1941 8.74554 14.2638 7.70021 15.6089 6.9547C16.9541 6.20919 18.4289 5.83643 20.0334 5.83643C21.654 5.83643 23.1288 6.20919 24.4578 6.9547C25.8029 7.70021 26.8645 8.74554 27.6424 10.0907C28.4203 11.4197 28.8093 12.9269 28.8093 14.6124C28.8093 16.2979 28.4203 17.8132 27.6424 19.1584C26.8645 20.4873 25.8029 21.5327 24.4578 22.2944C23.1126 23.0399 21.6378 23.4126 20.0334 23.4126ZM20.0334 18.9882C21.2489 18.9882 22.2051 18.5911 22.9019 17.797C23.615 17.0029 23.9716 15.9413 23.9716 14.6124C23.9716 13.251 23.615 12.1814 22.9019 11.4034C22.2051 10.6093 21.2489 10.2123 20.0334 10.2123C18.8016 10.2123 17.8373 10.6093 17.1405 11.4034C16.4436 12.1814 16.0951 13.251 16.0951 14.6124C16.0951 15.9575 16.4436 17.0272 17.1405 17.8213C17.8373 18.5992 18.8016 18.9882 20.0334 18.9882Z" fill="#868686"/>
<path d="M39.3625 23.2425L36.0321 18.4048L33.1878 23.2425H27.7666L33.3336 14.4665L27.5721 6.10385H33.1878L36.421 10.82L39.1924 6.10385H44.6135L39.1194 14.7339L44.9782 23.2425H39.3625Z" fill="#868686"/>
<path d="M61.9529 6.10385V23.2425H57.1881V16.3627H51.378V23.2425H46.6132V6.10385H51.378V12.546H57.1881V6.10385H61.9529Z" fill="#868686"/>
<path d="M69.4444 6.10385V23.2425H64.6796V6.10385H69.4444Z" fill="#868686"/>
<path d="M76.9226 19.5959H82.2465V23.2425H72.1578V6.10385H76.9226V19.5959Z" fill="#868686"/>
<path d="M88.864 19.5959H94.1879V23.2425H84.0992V6.10385H88.864V19.5959Z" fill="#868686"/>
<path d="M111.812 0.293732L105.2 27.4967H102.477L109.065 0.293732H111.812Z" fill="#868686"/>
<defs>
<linearGradient id="paint0_linear_110_2" x1="-0.499996" y1="70" x2="684.5" y2="75.5" gradientUnits="userSpaceOnUse">
<stop stop-color="#F472B5"/>
<stop offset="1" stop-color="#FDB776"/>
</linearGradient>
<linearGradient id="paint1_linear_110_2" x1="-0.499996" y1="70" x2="684.5" y2="75.5" gradientUnits="userSpaceOnUse">
<stop stop-color="#F472B5"/>
<stop offset="1" stop-color="#FDB776"/>
</linearGradient>
<linearGradient id="paint2_linear_110_2" x1="-0.499996" y1="70" x2="684.5" y2="75.5" gradientUnits="userSpaceOnUse">
<stop stop-color="#F472B5"/>
<stop offset="1" stop-color="#FDB776"/>
</linearGradient>
<linearGradient id="paint3_linear_110_2" x1="-0.499996" y1="70" x2="684.5" y2="75.5" gradientUnits="userSpaceOnUse">
<stop stop-color="#F472B5"/>
<stop offset="1" stop-color="#FDB776"/>
</linearGradient>
<linearGradient id="paint4_linear_110_2" x1="-0.499996" y1="70" x2="684.5" y2="75.5" gradientUnits="userSpaceOnUse">
<stop stop-color="#F472B5"/>
<stop offset="1" stop-color="#FDB776"/>
</linearGradient>
<linearGradient id="paint5_linear_110_2" x1="-0.499996" y1="70" x2="684.5" y2="75.5" gradientUnits="userSpaceOnUse">
<stop stop-color="#F472B5"/>
<stop offset="1" stop-color="#FDB776"/>
</linearGradient>
<linearGradient id="paint6_linear_110_2" x1="-0.499996" y1="70" x2="684.5" y2="75.5" gradientUnits="userSpaceOnUse">
<stop stop-color="#F472B5"/>
<stop offset="1" stop-color="#FDB776"/>
</linearGradient>
<linearGradient id="paint7_linear_110_2" x1="-0.499996" y1="70" x2="684.5" y2="75.5" gradientUnits="userSpaceOnUse">
<stop stop-color="#F472B5"/>
<stop offset="1" stop-color="#FDB776"/>
</linearGradient>
<linearGradient id="paint8_linear_110_2" x1="-0.499996" y1="70" x2="684.5" y2="75.5" gradientUnits="userSpaceOnUse">
<stop stop-color="#F472B5"/>
<stop offset="1" stop-color="#FDB776"/>
</linearGradient>
</defs>
</svg>
